<svg width="32" height="9" viewBox="0 0 32 9" fill="none" xmlns="http://www.w3.org/2000/svg">
<path d="M4.84594 8.01299C4.38308 8.09455 3.91208 8.119 3.42485 8.18413L1.93873 3.81663V8.37157C1.47587 8.42045 1.0536 8.48563 0.615082 8.55082V0.206879H1.84946L3.53852 4.94116V0.206879H4.84594V8.01299ZM7.40396 3.26252C7.90748 3.26252 8.67893 3.23807 9.14179 3.23807V4.54178C8.5652 4.54178 7.89122 4.54178 7.40396 4.56624V6.50558C8.16733 6.45671 8.93067 6.39146 9.7021 6.36701V7.62179L6.10462 7.90704V0.206879H9.7021V1.51062H7.40396V3.26252ZM14.5339 1.51065H13.1859V7.50785C12.7473 7.50785 12.3088 7.50785 11.8866 7.5241V1.51065H10.5386V0.206879H14.5339L14.5339 1.51065ZM16.6452 3.17291H18.4237V4.47663H16.6452V7.43452H15.3702V0.206879H19.0003V1.51062H16.6452V3.17291ZM21.1116 6.29371C21.8506 6.30997 22.5977 6.3671 23.3205 6.40777V7.69524C22.1592 7.62185 20.9979 7.54861 19.8123 7.5241V0.206879H21.1116V6.29371ZM24.4167 7.78487C24.8309 7.80936 25.2694 7.83381 25.6917 7.88262V0.206879H24.4167V7.78487ZM31.3843 0.206879L29.7358 4.17515L31.3843 8.55082C30.897 8.48563 30.4098 8.396 29.9225 8.3145L28.9887 5.90263L28.0387 8.119C27.5676 8.03745 27.1128 8.01299 26.6419 7.94781L28.3147 4.12622L26.8043 0.206879H28.2009L29.0536 2.3988L29.9632 0.206879H31.3843Z" fill="#D81F26"/>
</svg>
